# xmcd CD database file
#
# Track frame offsets:
#	150
#	35248
#	54067
#	77347
#	93386
#	115191
#	139480
#	158515
#	183668
#	220134
#	247940
#	278168
#
# Disc length: 3957 seconds
#
# Revision: 0
# Processed by: cddbd v1.5.2PL0 Copyright (c) Steve Scherf et al.
# Submitted via: CDex 1.70beta2
#
DISCID=9d0f730c
DTITLE=ERIC CLAPTON and STEVE WINWOOD - Live From Medison Souare Garden cd1
DYEAR=2009
DGENRE=Blues
TTITLE0=Had To Cry Today
TTITLE1=Low Down
TTITLE2=Them Changes
TTITLE3=Forever Man
TTITLE4=Sleeping In The Ground
TTITLE5=Presence Of The Lord
TTITLE6=Glad
TTITLE7=Well Alright
TTITLE8=Double Trouble
TTITLE9=Pearly Queen
TTITLE10=Tell The Truth
TTITLE11=No Face No Name No Number
EXTD=YEAR: 2009
EXTT0=
EXTT1=
EXTT2=
EXTT3=
EXTT4=
EXTT5=
EXTT6=
EXTT7=
EXTT8=
EXTT9=
EXTT10=
EXTT11=
PLAYORDER=
